<svg xmlns="http://www.w3.org/2000/svg"  viewBox="0 0 64 64"><defs fill="#A6A299" /><path  d="m37.33,30l-3.09-6.18,7.91-15.82h.85c3.08,0,5,1.91,5,5,0,.87-.14,1.46-.53,2.24l-7.38,14.76h-2.76Zm14.67,18.06c0,4.38-3.56,7.94-7.94,7.94-3.03,0-5.75-1.68-7.11-4.39l-4.95-9.9-4.95,9.9c-1.35,2.71-4.08,4.39-7.11,4.39-4.38,0-7.94-3.56-7.94-7.94,0-7.7,6.23-13.97,13.91-14.05l-9.39-18.77c-.39-.78-.53-1.37-.53-2.24,0-3.08,1.91-5,5-5h.85l13,26h3.09c7.75,0,14.06,6.31,14.06,14.06Zm-25.85-8.06h-.09c-4.44,0-8.06,3.61-8.06,8.06,0,1.07.87,1.94,1.94,1.94.74,0,1.41-.41,1.74-1.08l4.46-8.92Zm19.85,8.06c0-4.44-3.61-8.06-8.06-8.06h-.09l4.46,8.92c.33.66,1,1.08,1.74,1.08,1.07,0,1.94-.87,1.94-1.94Z" fill="#A6A299" /></svg>